<svg width="820" height="820" viewBox="0 0 820 820" fill="none" xmlns="http://www.w3.org/2000/svg">
<path d="M692.843 692.843C620.457 765.229 520.457 810 410 810C299.288 810 199.083 765.021 126.658 692.341L409.5 409.5L692.843 692.843ZM339 595.234H342.75C344.234 595.234 345.367 595.273 346.148 595.352C349.664 595.352 352.203 595.977 353.766 597.227C355.328 598.398 356.266 599.883 356.578 601.68C356.969 603.398 357.164 605.195 357.164 607.07V701.875C357.164 703.984 356.969 705.82 356.578 707.383C356.266 708.945 355.289 710.156 353.648 711.016C352.086 711.797 349.391 712.188 345.562 712.188H339V730H417.633C433.414 730 445.875 728.164 455.016 724.492C464.156 720.82 470.602 715.82 474.352 709.492C478.18 703.086 480.094 695.859 480.094 687.812C480.094 677.812 477.125 669.531 471.188 662.969C465.25 656.406 456.773 651.992 445.758 649.727C454.898 647.539 461.852 643.398 466.617 637.305C471.461 631.211 473.883 624.141 473.883 616.094C473.883 607.812 471.891 600.82 467.906 595.117C464 589.336 457.359 584.961 447.984 581.992C438.609 578.945 425.68 577.422 409.195 577.422H339V595.234ZM403.922 659.336C419 659.336 429.742 661.484 436.148 665.781C442.633 670 445.875 676.836 445.875 686.289C445.875 694.492 442.945 700.742 437.086 705.039C431.305 709.336 422.594 711.484 410.953 711.484H389.742V659.336H403.922ZM692.341 126.658C765.021 199.083 810 299.288 810 410C810 514.701 769.771 610.004 703.93 681.302L420.813 398.186L692.341 126.658ZM398.186 398.186L115.589 680.782C50.032 609.542 10 514.446 10 410C10 299.543 54.7715 199.543 127.157 127.157L398.186 398.186ZM408.961 595.938C420.602 595.938 428.844 598.086 433.688 602.383C438.609 606.602 441.07 612.305 441.07 619.492C441.07 627.305 438.453 633.32 433.219 637.539C428.062 641.68 420.367 643.75 410.133 643.75H389.742V595.938H408.961ZM568.266 349.812H572.367C577.055 349.812 580.375 350.164 582.328 350.867C584.359 351.492 585.609 352.586 586.078 354.148C586.547 355.633 586.781 357.703 586.781 360.359V456.336C586.781 458.602 586.586 460.516 586.195 462.078C585.883 463.641 584.75 464.812 582.797 465.594C580.844 466.375 577.484 466.766 572.719 466.766H568.266V484.578C573.578 484.578 578.773 484.539 583.852 484.461C588.93 484.383 595.141 484.344 602.484 484.344C609.75 484.422 616.039 484.5 621.352 484.578H637.641V466.766H632.133C627.133 466.766 623.773 466.375 622.055 465.594C620.336 464.734 619.477 462.586 619.477 459.148V414.734H631.547C635.766 414.734 639.359 415.008 642.328 415.555C645.375 416.023 647.992 417 650.18 418.484C652.211 421.297 654.164 424.773 656.039 428.914C657.914 432.977 659.477 437.938 660.727 443.797C662.758 453.172 665.258 461.141 668.227 467.703C671.273 474.188 675.258 479.109 680.18 482.469C685.102 485.828 691.508 487.508 699.398 487.508C708.852 487.508 716.273 484.734 721.664 479.188C727.055 473.562 729.75 465.711 729.75 455.633L716.742 457.039C716.742 461.102 715.922 463.914 714.281 465.477C712.641 466.961 710.492 467.703 707.836 467.703C703.852 467.703 701 465.711 699.281 461.727C697.641 457.664 695.961 451.297 694.242 442.625C692.523 432.156 689.789 424.539 686.039 419.773C682.289 414.93 678.109 411.18 673.5 408.523C683.5 406.258 691.312 402 696.938 395.75C702.562 389.422 705.375 381.883 705.375 373.133C705.375 364.383 703.578 357.312 699.984 351.922C696.391 346.453 691.508 342.312 685.336 339.5C679.164 336.609 672.133 334.656 664.242 333.641C656.43 332.547 648.266 332 639.75 332H568.266V349.812ZM90.9766 336.281C90.9766 337.922 90.9375 339.797 90.8594 341.906V350.812H97.4219C102.734 350.812 105.977 351.516 107.148 352.922C108.398 354.25 109.023 357.219 109.023 361.828V455.695C109.023 458.508 108.867 460.812 108.555 462.609C108.242 464.328 107.266 465.617 105.625 466.477C103.984 467.336 101.133 467.766 97.0703 467.766H90.5078V485.578C95.5078 485.578 100.352 485.539 105.039 485.461C109.727 485.383 115.312 485.344 121.797 485.344C127.812 485.344 132.969 485.383 137.266 485.461C141.641 485.539 146.016 485.578 150.391 485.578V467.766H144.414C138.945 467.766 135.391 467.297 133.75 466.359C132.109 465.422 131.289 462.609 131.289 457.922V364.523H131.523L205.352 487.102H238.633V361.594C238.633 358.234 239.102 355.617 240.039 353.742C241.055 351.789 244.336 350.812 249.883 350.812H256.328V333C256.328 333 254.961 333.039 252.227 333.117H242.617C238.867 333.117 235.391 333.156 232.188 333.234H225.742C222.07 333.234 217.969 333.195 213.438 333.117C208.906 333.039 203.672 333 197.734 333V350.812H203.359C208.516 350.812 211.914 351.32 213.555 352.336C215.273 353.273 216.133 355.891 216.133 360.188V451.359C216.133 451.359 214.844 449.211 212.266 444.914C209.766 440.617 206.406 434.953 202.188 427.922C197.969 420.891 193.32 413.195 188.242 404.836C183.242 396.398 178.203 387.961 173.125 379.523C168.125 371.086 163.516 363.352 159.297 356.32C155.078 349.289 151.68 343.664 149.102 339.445L145.352 333H90.9766V336.281ZM635.297 350.516C643.344 350.516 650.102 351.18 655.57 352.508C661.117 353.836 665.297 356.297 668.109 359.891C670.922 363.406 672.328 368.484 672.328 375.125C672.328 384.266 669.75 390.633 664.594 394.227C659.438 397.82 651.273 399.617 640.102 399.617H619.477V350.516H635.297ZM410 10C514.446 10 609.543 50.0317 680.783 115.589L409.499 386.872L138.696 116.069C209.994 50.2276 305.299 10 410 10ZM487.102 90.4219C482.258 90.4219 477.922 90.4609 474.094 90.5391C470.266 90.5391 466.867 90.5781 463.898 90.6562H436.242C432.961 90.5781 430.539 90.5 428.977 90.4219V108.234H433.664C437.961 108.234 441.008 108.742 442.805 109.758C444.602 110.695 445.695 111.984 446.086 113.625C446.477 115.266 446.672 117.062 446.672 119.016V186.164C446.672 194.836 445.812 202.18 444.094 208.195C442.453 214.133 439.367 218.625 434.836 221.672C430.383 224.719 423.938 226.242 415.5 226.242C406.828 226.242 400.07 224.719 395.227 221.672C390.383 218.547 386.984 213.938 385.031 207.844C383.078 201.672 382.102 194.016 382.102 184.875V119.367C382.102 117.414 382.297 115.617 382.688 113.977C383.078 112.258 384.133 110.891 385.852 109.875C387.648 108.781 390.539 108.234 394.523 108.234H398.977V90.4219C392.414 90.5 386.477 90.5781 381.164 90.6562C375.852 90.7344 370.5 90.7734 365.109 90.7734H354.094C349.953 90.6953 345.969 90.6172 342.141 90.5391C338.391 90.4609 335.344 90.4219 333 90.4219V108.234H338.391C343.781 108.234 347.023 109.094 348.117 110.812C349.211 112.531 349.758 114.406 349.758 116.438V185.344C349.758 198.938 351.75 210.227 355.734 219.211C359.719 228.195 366.203 234.914 375.188 239.367C384.172 243.742 396.047 245.93 410.812 245.93C432.375 245.93 447.688 240.812 456.75 230.578C465.812 220.266 470.344 204.953 470.344 184.641V119.367C470.344 117.883 470.461 116.281 470.695 114.562C470.93 112.766 471.789 111.281 473.273 110.109C474.836 108.859 477.531 108.234 481.359 108.234H487.102V90.4219Z" fill="black"/>
</svg>
