<svg width="72" height="72" viewBox="0 0 72 72" fill="none" xmlns="http://www.w3.org/2000/svg">
<g clip-path="url(#clip0_32_256)">
<rect width="72" height="72" rx="36" fill="white"/>
<path d="M61.4559 61.4559C54.9411 67.9706 45.9411 72 36 72C26.0359 72 17.0175 67.9519 10.4992 61.4107L35.955 35.955L61.4559 61.4559ZM29.61 52.6711H29.9475C30.0811 52.6711 30.183 52.6746 30.2533 52.6817C30.5698 52.6817 30.7983 52.7379 30.9389 52.8504C31.0795 52.9558 31.1639 53.0895 31.192 53.2512C31.2272 53.4058 31.2448 53.5676 31.2448 53.7363V62.2688C31.2448 62.4586 31.2272 62.6238 31.192 62.7645C31.1639 62.9051 31.076 63.014 30.9283 63.0914C30.7877 63.1617 30.5452 63.1969 30.2006 63.1969H29.61V64.8H36.687C38.1073 64.8 39.2288 64.6348 40.0514 64.3043C40.874 63.9738 41.4542 63.5238 41.7917 62.9543C42.1362 62.3777 42.3085 61.7273 42.3085 61.0031C42.3085 60.1031 42.0413 59.3578 41.5069 58.7672C40.9725 58.1765 40.2096 57.7793 39.2182 57.5754C40.0408 57.3785 40.6667 57.0058 41.0955 56.4575C41.5315 55.909 41.7495 55.2727 41.7495 54.5485C41.7495 53.8031 41.5702 53.1738 41.2115 52.6605C40.86 52.1402 40.2623 51.7465 39.4186 51.4793C38.5748 51.2051 37.4112 51.068 35.9276 51.068H29.61V52.6711ZM35.453 58.4402C36.81 58.4402 37.7768 58.6336 38.3533 59.0203C38.937 59.4 39.2288 60.0152 39.2288 60.866C39.2288 61.6043 38.9651 62.1668 38.4377 62.5535C37.9175 62.9402 37.1335 63.1336 36.0858 63.1336H34.1768V58.4402H35.453ZM61.4107 10.4992C67.9519 17.0175 72 26.0359 72 36C72 45.4231 68.3794 54.0004 62.4537 60.4172L36.9732 34.9367L61.4107 10.4992ZM34.9367 34.9367L9.50301 60.3704C3.60288 53.9588 0 45.4001 0 36C0 26.0589 4.02944 17.0589 10.5441 10.5441L34.9367 34.9367ZM35.9065 52.7344C36.9542 52.7344 37.696 52.9277 38.1319 53.3145C38.5748 53.6942 38.7963 54.2075 38.7963 54.8543C38.7963 55.5575 38.5608 56.0988 38.0897 56.4785C37.6256 56.8512 36.933 57.0375 36.012 57.0375H34.1768V52.7344H35.9065ZM50.2439 30.5831H50.613C51.035 30.5831 51.3338 30.6148 51.5095 30.678C51.6923 30.7343 51.8048 30.8327 51.847 30.9733C51.8892 31.107 51.9103 31.2933 51.9103 31.5323V40.1702C51.9103 40.3742 51.8927 40.5464 51.8576 40.687C51.8295 40.8277 51.7275 40.9331 51.5517 41.0035C51.376 41.0738 51.0736 41.1089 50.6447 41.1089H50.2439V42.712C50.722 42.712 51.1896 42.7085 51.6467 42.7015C52.1037 42.6945 52.6627 42.691 53.3236 42.691C53.9775 42.698 54.5435 42.705 55.0217 42.712H56.4877V41.1089H55.992C55.542 41.1089 55.2396 41.0738 55.085 41.0035C54.9302 40.9261 54.8529 40.7327 54.8529 40.4233V36.4261H55.9392C56.3189 36.4261 56.6423 36.4507 56.9095 36.5C57.1838 36.5421 57.4193 36.63 57.6162 36.7636C57.799 37.0167 57.9748 37.3296 58.1435 37.7023C58.3123 38.0679 58.4529 38.5144 58.5654 39.0417C58.7482 39.8855 58.9732 40.6027 59.2404 41.1933C59.5146 41.7769 59.8732 42.2198 60.3162 42.5222C60.7592 42.8245 61.3357 42.9757 62.0458 42.9757C62.8967 42.9757 63.5646 42.7261 64.0498 42.2269C64.535 41.7206 64.7775 41.014 64.7775 40.107L63.6068 40.2335C63.6068 40.5992 63.533 40.8523 63.3853 40.9929C63.2377 41.1265 63.0443 41.1933 62.8052 41.1933C62.4467 41.1933 62.19 41.014 62.0353 40.6554C61.8877 40.2898 61.7365 39.7167 61.5818 38.9363C61.4271 37.994 61.181 37.3085 60.8435 36.8796C60.506 36.4437 60.1298 36.1062 59.715 35.8671C60.615 35.6632 61.3181 35.28 61.8244 34.7175C62.3306 34.148 62.5838 33.4695 62.5838 32.682C62.5838 31.8945 62.422 31.2581 62.0986 30.773C61.7752 30.2808 61.3357 29.9081 60.7802 29.655C60.2248 29.3948 59.592 29.219 58.8818 29.1277C58.1787 29.0292 57.4439 28.98 56.6775 28.98H50.2439V30.5831ZM7.28789 29.3653C7.28789 29.513 7.28438 29.6817 7.27735 29.8715V30.6731H7.86797C8.34606 30.6731 8.63793 30.7364 8.74332 30.863C8.85582 30.9825 8.91207 31.2497 8.91207 31.6645V40.1126C8.91207 40.3657 8.89803 40.5731 8.86995 40.7348C8.84178 40.8895 8.75394 41.0055 8.60625 41.0829C8.45856 41.1602 8.20197 41.1989 7.83633 41.1989H7.2457V42.802C7.6957 42.802 8.13168 42.7985 8.55351 42.7915C8.97543 42.7845 9.47808 42.781 10.0617 42.781C10.6031 42.781 11.0672 42.7845 11.4539 42.7915C11.8477 42.7985 12.2414 42.802 12.6352 42.802V41.1989H12.0973C11.6051 41.1989 11.2852 41.1567 11.1375 41.0723C10.9898 40.988 10.916 40.7348 10.916 40.313V31.9071H10.9371L17.5817 42.9392H20.577V31.6435C20.577 31.3411 20.6192 31.1055 20.7035 30.9368C20.795 30.761 21.0902 30.6731 21.5895 30.6731H22.1695V29.07C22.1695 29.07 22.0465 29.0735 21.8004 29.0805H20.9355C20.598 29.0805 20.2852 29.084 19.9969 29.0911H19.4168C19.0863 29.0911 18.7172 29.0876 18.3094 29.0805C17.9015 29.0735 17.4305 29.07 16.8961 29.07V30.6731H17.4023C17.8664 30.6731 18.1723 30.7188 18.32 30.8102C18.4746 30.8946 18.552 31.1302 18.552 31.5169V39.7223C18.552 39.7223 18.436 39.529 18.2039 39.1423C17.9789 38.7555 17.6765 38.2458 17.2969 37.613C16.9172 36.9802 16.4988 36.2876 16.0418 35.5352C15.5918 34.7758 15.1383 34.0165 14.6813 33.2571C14.2313 32.4977 13.8164 31.8017 13.4367 31.1688C13.057 30.536 12.7512 30.0298 12.5192 29.6501L12.1817 29.07H7.28789V29.3653ZM56.2767 30.6464C57.001 30.6464 57.6092 30.7062 58.1013 30.8257C58.6005 30.9452 58.9767 31.1667 59.2298 31.4902C59.483 31.8065 59.6095 32.2636 59.6095 32.8613C59.6095 33.6839 59.3775 34.257 58.9135 34.5804C58.4494 34.9038 57.7146 35.0655 56.7092 35.0655H54.8529V30.6464H56.2767ZM36 0C45.4001 0 53.9589 3.60285 60.3705 9.50301L35.9549 33.9185L11.5826 9.54621C17.9995 3.62048 26.5769 0 36 0ZM42.9392 7.23797C42.5032 7.23797 42.113 7.24148 41.7685 7.24852C41.4239 7.24852 41.118 7.25203 40.8508 7.25906H38.3618C38.0665 7.25203 37.8485 7.245 37.7079 7.23797V8.84106H38.1298C38.5165 8.84106 38.7907 8.88678 38.9525 8.97822C39.1142 9.06255 39.2126 9.17856 39.2477 9.32625C39.2829 9.47394 39.3005 9.63558 39.3005 9.81144V15.8548C39.3005 16.6352 39.2231 17.2962 39.0685 17.8376C38.9208 18.372 38.643 18.7763 38.2352 19.0505C37.8345 19.3247 37.2544 19.4618 36.495 19.4618C35.7145 19.4618 35.1063 19.3247 34.6704 19.0505C34.2345 18.7692 33.9286 18.3544 33.7528 17.806C33.577 17.2505 33.4892 16.5614 33.4892 15.7388V9.84303C33.4892 9.66726 33.5067 9.50553 33.5419 9.35793C33.577 9.20322 33.672 9.08019 33.8267 8.98875C33.9883 8.89029 34.2485 8.84106 34.6071 8.84106H35.0079V7.23797C34.4173 7.245 33.8829 7.25203 33.4048 7.25906C32.9267 7.2661 32.445 7.26961 31.9598 7.26961H30.9685C30.5958 7.26258 30.2372 7.25555 29.8927 7.24852C29.5552 7.24148 29.281 7.23797 29.07 7.23797V8.84106H29.5552C30.0403 8.84106 30.3321 8.91846 30.4305 9.07308C30.529 9.22779 30.5782 9.39654 30.5782 9.57942V15.781C30.5782 17.0044 30.7575 18.0204 31.1161 18.829C31.4747 19.6376 32.0583 20.2423 32.8669 20.643C33.6755 21.0368 34.7442 21.2337 36.0731 21.2337C38.0138 21.2337 39.3919 20.7731 40.2075 19.852C41.0231 18.9239 41.431 17.5458 41.431 15.7177V9.84303C41.431 9.70947 41.4415 9.56529 41.4626 9.41058C41.4837 9.24894 41.561 9.11529 41.6946 9.00981C41.8352 8.89731 42.0778 8.84106 42.4223 8.84106H42.9392V7.23797Z" fill="#EE7828"/>
</g>
<defs>
<clipPath id="clip0_32_256">
<rect width="72" height="72" rx="36" fill="white"/>
</clipPath>
</defs>
</svg>
