<svg width="151" height="8" viewBox="0 0 151 8" fill="none" xmlns="http://www.w3.org/2000/svg">
<path d="M0.5 3.18213C0.223858 3.18213 0 3.40599 0 3.68213C0 3.95827 0.223858 4.18213 0.5 4.18213V3.68213V3.18213ZM150.854 4.03568C151.049 3.84042 151.049 3.52384 150.854 3.32858L147.672 0.146595C147.476 -0.0486672 147.16 -0.0486672 146.964 0.146595C146.769 0.341857 146.769 0.65844 146.964 0.853702L149.793 3.68213L146.964 6.51056C146.769 6.70582 146.769 7.0224 146.964 7.21766C147.16 7.41293 147.476 7.41293 147.672 7.21766L150.854 4.03568ZM0.5 3.68213V4.18213H150.5V3.68213V3.18213H0.5V3.68213Z" fill="#C5BAAA"/>
</svg>
