<svg width="23" height="23" viewBox="0 0 23 23" fill="none" xmlns="http://www.w3.org/2000/svg">
<path d="M21.7408 15.9842C22.7008 16.5285 23.0579 17.6954 22.5803 18.7828C22.2515 19.577 21.769 20.2983 21.1604 20.9054C19.5032 22.5623 17.0399 23.2694 14.902 22.4719C11.6048 21.2627 8.56835 19.3492 5.98715 16.768C3.40595 14.1866 1.53995 11.1722 0.330834 7.87507C-0.752526 4.96891 0.914514 1.46947 4.02155 0.194589C4.91867 -0.17885 5.88923 0.000189514 6.49235 0.60331C6.62103 0.731305 6.73078 0.877015 6.81827 1.03603L8.26067 3.65275C8.68931 4.42027 8.61251 5.41147 8.02619 6.20971L6.13403 8.85403L6.08219 8.87947C6.82523 10.7606 7.85531 12.3614 9.16907 13.6751C10.4747 14.9807 12.0618 16.0043 13.9204 16.7435L13.9458 16.6917L16.5916 14.7748C17.3867 14.2149 18.381 14.1119 19.1485 14.5406L21.7408 15.9842Z" fill="#EE7828"/>
</svg>
